<svg xmlns="http://www.w3.org/2000/svg" width="96" height="96" fill="none"><path fill="#fff" d="M48 8C25.92 8 8 25.92 8 48s17.92 40 40 40 40-17.92 40-40S70.08 8 48 8Zm4 13.2 5.4-3.8a32.04 32.04 0 0 1 17.52 13.36l-1.56 5.36-5.4 1.84L52 26.8v-5.6Zm-13.4-3.8 5.4 3.8v5.6L28.04 37.96l-5.4-1.84-1.56-5.36A32.412 32.412 0 0 1 38.6 17.4ZM28.32 68.44l-4.56.4A31.752 31.752 0 0 1 16 48c0-.48.04-.92.08-1.4l4-2.92 5.52 1.92 5.84 17.36-3.12 5.48ZM58 78.36C54.84 79.4 51.48 80 48 80c-3.48 0-6.84-.6-10-1.64l-2.76-5.96L37.8 68h20.44l2.56 4.44-2.8 5.92ZM57.08 60H38.92l-5.4-16.08L48 33.76l14.52 10.16L57.08 60Zm15.16 8.84-4.56-.4-3.16-5.48 5.84-17.36 5.56-1.88 4 2.92c.04.44.08.88.08 1.36 0 7.96-2.92 15.24-7.76 20.84Z"/></svg>