<svg xmlns="http://www.w3.org/2000/svg" width="96" height="96" fill="none"><path fill="#fff" d="m89.88 75.28-4-15.44-12.6-46.36a4 4 0 0 0-4.88-2.84l-15.48 4A4 4 0 0 0 50 13.32H10a4 4 0 0 0-4 4v64a4 4 0 0 0 4 4h40a4 4 0 0 0 4-4v-32l8.8 32.88a4 4 0 0 0 4 2.96c.346.039.694.039 1.04 0L87.16 80a3.998 3.998 0 0 0 2.44-1.88 4.2 4.2 0 0 0 .28-2.84Zm-64 2.2h-12v-8h12v8Zm0-16h-12v-24h12v24Zm0-32h-12v-8h12v8Zm20 48h-12v-8h12v8Zm0-16h-12v-24h12v24Zm0-32h-12v-8h12v8Zm9-6.96 11.6-3.12 2.08 7.72-11.6 3.12-2.08-7.72Zm10.36 38.64-6.2-23.2 11.6-3.12 6.2 23.2-11.6 3.12Zm4 15.44-2.08-7.72 11.6-3.12 2.08 7.72-11.6 3.12Z"/></svg>